<svg  viewBox="0 0 85 16" fill="none" xmlns="http://www.w3.org/2000/svg">
<path d="M11.832 0.620657L9.312 15.5247H2.976L0.288 0.620657H4.824L6.12 10.3887H6.528L7.512 0.620657H11.832ZM17.6372 7.17266C17.2212 7.17266 16.9492 7.31666 16.8212 7.60466C16.6932 7.87666 16.6292 8.30066 16.6292 8.87666H18.7172V8.30066C18.7172 7.54866 18.3572 7.17266 17.6372 7.17266ZM17.7332 3.74066C19.3812 3.74066 20.5572 4.14066 21.2612 4.94066C21.9812 5.72466 22.3412 6.85266 22.3412 8.32466C22.3412 8.51666 22.2852 9.38066 22.1732 10.9167H16.7012C16.7012 12.1167 17.2532 12.7167 18.3572 12.7167C18.8852 12.7167 19.9172 12.5327 21.4532 12.1647L21.7892 15.1407C20.4452 15.5567 19.1012 15.7647 17.7572 15.7647C16.1092 15.7647 14.8452 15.2287 13.9652 14.1567C13.0852 13.0687 12.6452 11.5967 12.6452 9.74066C12.6452 5.74066 14.3412 3.74066 17.7332 3.74066ZM23.4544 12.8847V0.140657H27.4144V11.6127C27.4144 11.8847 27.4704 12.0767 27.5824 12.1887C27.7104 12.3007 27.9264 12.3567 28.2304 12.3567L27.9184 15.7647H26.5984C25.5424 15.7647 24.7504 15.5487 24.2224 15.1167C23.7104 14.6687 23.4544 13.9247 23.4544 12.8847ZM35.5359 15.5487C34.3519 15.6927 33.3199 15.7647 32.4399 15.7647C31.5759 15.7647 30.8959 15.5407 30.3999 15.0927C29.9199 14.6287 29.6799 13.8367 29.6799 12.7167V7.14866H28.5279V4.17266H29.8719L30.0879 1.96466H33.7119V4.17266H35.8479L35.6799 7.14866H33.6879V11.9247C33.6879 12.2607 33.8479 12.4287 34.1679 12.4287C34.1999 12.4287 34.6959 12.4047 35.6559 12.3567L35.5359 15.5487ZM40.6571 9.06866V15.5247H36.6731V4.02866H40.1771L40.4171 4.72466H40.5131C40.8811 4.30866 41.2491 4.04466 41.6171 3.93266C42.0011 3.80466 42.6171 3.74066 43.4651 3.74066L43.2971 7.58066H42.1931C41.5691 7.58066 41.1531 7.67666 40.9451 7.86866C40.7531 8.06066 40.6571 8.46066 40.6571 9.06866ZM48.9966 7.17266C48.5806 7.17266 48.3086 7.31666 48.1806 7.60466C48.0526 7.87666 47.9886 8.30066 47.9886 8.87666H50.0766V8.30066C50.0766 7.54866 49.7166 7.17266 48.9966 7.17266ZM49.0926 3.74066C50.7406 3.74066 51.9166 4.14066 52.6206 4.94066C53.3406 5.72466 53.7006 6.85266 53.7006 8.32466C53.7006 8.51666 53.6446 9.38066 53.5326 10.9167H48.0606C48.0606 12.1167 48.6126 12.7167 49.7166 12.7167C50.2446 12.7167 51.2766 12.5327 52.8126 12.1647L53.1486 15.1407C51.8046 15.5567 50.4606 15.7647 49.1166 15.7647C47.4686 15.7647 46.2046 15.2287 45.3246 14.1567C44.4446 13.0687 44.0046 11.5967 44.0046 9.74066C44.0046 5.74066 45.7006 3.74066 49.0926 3.74066ZM58.8218 4.86866C59.7018 4.11666 60.6698 3.74066 61.7258 3.74066C62.7818 3.74066 63.5178 3.98866 63.9338 4.48466C64.3658 4.96466 64.5818 5.69266 64.5818 6.66866V15.5247H60.5018V8.03666C60.5018 7.63666 60.3258 7.43666 59.9738 7.43666C59.5258 7.43666 59.1498 7.54866 58.8458 7.77266V15.5247H54.8138V4.02866H58.4858L58.7258 4.86866H58.8218ZM76.1929 15.6687L74.5849 15.7647C73.3529 15.7647 72.6009 15.3567 72.3289 14.5407H72.2089C71.6809 15.3567 70.8729 15.7647 69.7849 15.7647C68.3449 15.7647 67.3289 15.2607 66.7369 14.2527C66.1609 13.2447 65.8729 11.7487 65.8729 9.76466C65.8729 7.76466 66.2009 6.26066 66.8569 5.25266C67.5129 4.24466 68.4569 3.74066 69.6889 3.74066C70.5369 3.74066 71.1929 3.94066 71.6569 4.34066V0.140657H75.6649V11.9967C75.6649 12.3007 75.7289 12.5087 75.8569 12.6207C75.9849 12.7167 76.2169 12.7647 76.5529 12.7647L76.1929 15.6687ZM70.7449 7.12466C70.4089 7.12466 70.1849 7.33266 70.0729 7.74866C69.9609 8.14866 69.9049 8.73266 69.9049 9.50066C69.9049 10.2527 69.9129 10.7647 69.9289 11.0367C69.9449 11.3087 69.9769 11.5887 70.0249 11.8767C70.0889 12.1487 70.1769 12.3407 70.2889 12.4527C70.4169 12.5487 70.6169 12.5967 70.8889 12.5967C71.1769 12.5967 71.4729 12.5247 71.7769 12.3807V7.41266C71.4409 7.22066 71.0969 7.12466 70.7449 7.12466ZM76.8304 7.43666C76.8304 6.26866 77.1824 5.36466 77.8864 4.72466C78.6064 4.06866 79.5904 3.74066 80.8384 3.74066C82.0864 3.74066 83.3504 3.90066 84.6304 4.22066L84.2224 7.55666C82.5904 7.18866 81.4944 7.00466 80.9344 7.00466C80.5984 7.00466 80.4304 7.14066 80.4304 7.41266C80.4304 7.58866 80.6144 7.74866 80.9824 7.89266C82.2624 8.35666 83.2224 8.88466 83.8624 9.47666C84.5184 10.0687 84.8464 10.9567 84.8464 12.1407C84.8464 13.3247 84.5424 14.2287 83.9344 14.8527C83.3264 15.4607 82.3904 15.7647 81.1264 15.7647C79.8784 15.7647 78.6304 15.6047 77.3824 15.2847L77.6464 12.0447C79.2464 12.4767 80.2784 12.6927 80.7424 12.6927C81.2224 12.6927 81.4624 12.5807 81.4624 12.3567C81.4624 12.1327 81.2864 11.9567 80.9344 11.8287C79.5104 11.2847 78.4704 10.7087 77.8144 10.1007C77.1584 9.47666 76.8304 8.58866 76.8304 7.43666Z" fill="currentColor"/>
</svg>
